#define vir_cursor_width 16
#define vir_cursor_height 16
#define vir_cursor_x_hot 0
#define vir_cursor_y_hot 0
static char vir_cursor_bits[] = {
   0x03, 0x00, 0x0f, 0x00, 0x3e, 0x00, 0xfe, 0x00, 0xfc, 0x03, 0xfc, 0x0f,
   0xf8, 0x1f, 0xf8, 0x03, 0xf0, 0x07, 0xf0, 0x0f, 0x60, 0x1f, 0x60, 0x3e,
   0x40, 0x7c, 0x00, 0xf8, 0x00, 0xf0, 0x00, 0xe0};
