/* XPM */
static char * toolbar_save_1_xpm[] = {
"24 24 6 1",
"       c None",
"- 	c #FFFFFFFFFFFF",
".	c #000000000000",
"X	c #00000000FFFF",
"o	c #FFFF00000000",
"O	c #E7E7E7E7E7E7",
"                        ",
"                        ",
"                        ",
"   ..................   ",
"   .XX.----------.XX.   ",
"   .XX.-oooooooo-.XX.   ",
"   .XX.----------.XX.   ",
"   .XX.----------.XX.   ",
"   .XX.----------.XX.   ",
"   .XX.----------.XX.   ",
"   .XX.----------.XX.   ",
"   .XX.----------.XX.   ",
"   .XX............XX.   ",
"   .XXXXXXXXXXXXXXXX.   ",
"   .XXXXXXXXXXXXXXXX.   ",
"   .XX............XX.   ",
"   .XX.........OO.XX.   ",
"   .XX.........OO.XX.   ",
"   .XX.........OO.XX.   ",
"    .X.........OO.XX.   ",
"     ................   ",
"                        ",
"                        ",
"                        "};
