/* XPM */
static char * mc_icon_5_xpm[] = {
"64 64 15 1",
" 	c #787870706B6B",
".	c #252524244A4A",
"X	c #292925256F6F",
"o	c #4B4B5151B1B1",
"O	c #515151518C8C",
"+	c #2A2A21218B8B",
"@	c #71717F7FCACA",
"#	c #92929E9ED3D3",
"$	c #CDCDE1E1F9F9",
"%	c #A3A3B1B1D7D7",
"&	c #6F6F7676A0A0",
"*	c #5A5A53535757",
"=	c #9F9F87876262",
"-	c #FFFFFFFFFFFF",
";	c #31311F1FB3B3",
"                                                                ",
"                                                                ",
"                                                                ",
"                                                   .XX          ",
"                                                 ..XXXXX        ",
"                                                ..XXXXXXX       ",
"                                               o.XXXXOXXXX      ",
"                  ++++++XXXXXXXXXX+Oo@@#$$$$$#@o.XXXO#oXXX      ",
"               XXXX++OOOOOOOOOOOooo@@@%$$$$$$$%@..XXO@oXXX      ",
"             XXX++++XXXXXXXXXXXXXXXOO@@#%$$$%@@O..XXXXXXXX      ",
"           +XX+XXXXX.X...............O@@&&&&&@@o...XXXXXX.      ",
"          +X++XX..XX                           o....XXXX..      ",
"          X++XX.X                               .........       ",
"         XX+X.X                                  .......        ",
"        +XOXXX                                     ...          ",
"        X+OXX                                                   ",
"        XO+X                                                    ",
"       +XOXX                                                    ",
"       XXoX                        *                            ",
"       XXoX               ***O*  ==                             ",
"       XXoX             OO+++++O =====                          ",
"       XXoX           *OOX+++++++OO == OOO                      ",
"       +X&X          *XXXXX++++++++OoO  OOO                     ",
"        Xoo+        *XXXXXX+++----+++++OOOO                     ",
"        XX@X       .X.XXXXX+--++++--++++;++O                    ",
"         XooO      X.XXXXX+-++++++++-+++++++*                   ",
"         XX@OO    ...XXXX+-++++++++++-++++++X                   ",
"          XX@O&   ...XXX+-++++++;;;;++-++++++*                  ",
"           XX&&O& ...XX++-+++++;;;;;;+-++++++X                  ",
"             XXoo....XX+-++++++;;;;;;;+-+++++X                  ",
"               XX...XX++-++++++;;;;;;++-++++++                  ",
"                 ...XXXX-++++++;;;;;;++-++++++                  ",
"                 ....XXX-X+++++;;;;;;++-++++++                  ",
"                 ....XXX-X++++++++;;;++-++++++XO&               ",
"                 ...XXXX-XX++++++++++++-+++++XXXOoO             ",
"                  ..XXXX-XX+++++++;;;++-+++++X XXX&O&           ",
"                  ..XXXXX-X+++++++++++-++++++*   XX&o&          ",
"                  ..XX+XX-++++++++++++-+++++X     XX@o+         ",
"                   ..XX+++-++++++++++-+++++XX      XX@+         ",
"                   ..XXXX++-+XXX++++-++++++X        .O&+        ",
"                    ..XXXX++--XXXX--XXXXXXX*        XX&X        ",
"                     ..XXXXX+X----XXXXXXXXX          Xo++       ",
"                      ...XXXXXXXXXXXXXXXXX           .OO+       ",
"                       ...XXXXXXXXXXXXX.X            X+O+       ",
"                        ....XXXXX...X.X.             .+O+       ",
"                          ............               XO++       ",
"                             ..--..                 XXO++       ",
"                                                    .XOX        ",
"                                                   XX+OO        ",
"          ..X                                     XXXOXX        ",
"        ..XXXXX                                  XXXOXO         ",
"       ..XXXXXXX                               XXXXO+X          ",
"      ..XXXXXXXXO                           XXXXX+OXXX          ",
"      .XXXXOXXXXO@#%%$%%#&@ooOXXXXXXXXXXXXXXXX+OoOXOX           ",
"      .XXXO#@XXX@@%$$$$$%#@@oO+++OOOOOOoooooooo+XXX             ",
"      .XXXO@&XXX@@%$$$$$%#@@oOOOOOOOOOOO+XXXXXXXX               ",
"      X.XXXXXXXXO@@#%$%#@&&OXXXXXXXXXX.X++++++                  ",
"      ..XXXXXXX.O                                               ",
"       ..XXXXX..                                                ",
"        .......                                                 ",
"          ...                                                   ",
"                                                                ",
"                                                                ",
"                                                                "};
