/* XPM */
static char * mc_icon_4_xpm[] = {
"64 64 16 1",
" 	c #787870706B6B",
".	c #252524244A4A",
"X	c #292925256F6F",
"o	c #92929E9ED3D3",
"O	c #2A2A21218B8B",
"+	c #4B4B5151B1B1",
"@	c #71717F7FCACA",
"#	c #A3A3B1B1D7D7",
"$	c #B5B5C0C0D1D1",
"%	c #CDCDE1E1F9F9",
"&	c #515151518C8C",
"*	c #6F6F7676A0A0",
"=	c #5A5A53535757",
"-	c #9F9F87876262",
";	c #31311F1FB3B3",
":	c #FFFFFFFFFFFF",
"                                                                ",
"                                                                ",
"                                                                ",
"                                                   .XX          ",
"                                                 ..XXXXX        ",
"                                                ..XXXXXXX       ",
"                                               o.XXXOXOXXX      ",
"                  OOOOOOXXXXXXXXXXXXXXO+@@o#$%%o.XXX&o+XXX      ",
"               XXXXOO&&&&&&&++&+++++++*@@o#$%%%$..XX=@&XXX      ",
"             XXOOOOOXXXXXXXXXXXXXXXXXXO&+@@o#%%o..XXXOXXX.      ",
"           OXXOOXXXX.....................+@@*##o...XXXXXX.      ",
"          OXOOXX..XX                           o....XXXX..      ",
"          XOOXX.X                               .........       ",
"         XOOX.X                                  .......        ",
"        OX&XXX                                     ...          ",
"        XO&XX                                                   ",
"        X&OX                                                    ",
"       OX&XX                                                    ",
"       XX+X                 ==    ==                            ",
"       XX+X               =          ==O                        ",
"       XX+X             =&&&& ------  &O&                       ",
"       XX+X           =&XOOOO&-------*++OX                      ",
"       OX@O          =XXXOOOOO&&---- &++&O&                     ",
"        X++O        =XXXXOOOOOOO&++    &&+O                     ",
"        XX@X       ..XXXXXOOOOOOO;;;&&&&&+&=                    ",
"         X++&      X.XXXXXOOOOOOOO;;;;;OO;&==                   ",
"         XX@&&    ..XXXXXOOOOO:::::;;;;;;;O&=                   ",
"          XX@&*   ..XXXXOOOOO:OO;;;:;;;;;;;&=                   ",
"           XX**&* ..XXOOOOOO:OO;;;;;:;;;;OO&==                  ",
"             XO++...XXOOOOO:OOO;;;;;;:;;;OOX==                  ",
"               XX...XXXXXO:OOOO;;;;;;;:;OOOOO=                  ",
"                 ...XXXXXO:OOOO;;;;;;;:;OOOOO=                  ",
"                 ...XXXXOO:OOOO;;;;;;;:;OOOOO=                  ",
"                 ...XXXXOO:OOOOO;;;;;;:;OOOOO==&*               ",
"                 ...XXXXXO:OOOOOOOOOOO:OOOOOO==X&+&             ",
"                  ..XXXXXX:OOOOOOOOOOO:OOOOOO= XXX*&*           ",
"                  ...XXXXXO:OOOOOOOOO:OOOOOOX    XX*+*          ",
"                  ...XXXXXOO:OOOOOOO:OOOOOOOX     XX@+O         ",
"                   ..XXXXXXXO:OOOOO:OOOOOOOX=      XX@O         ",
"                   ...XXXXXXXO:::::OOOOOOOXX        .&*O        ",
"                    ..XXXXXXXXXXOOOOOOOOOXX=        XX@X        ",
"                     ...XXXXXXXXXXXXXXXOXXX          X+OO       ",
"                      ..XXXXXXXXXXXXXXXXXX           .&&O       ",
"                       ...XX.XXXXXXXXXX.X            .O+O       ",
"                        ....XXX..XXXX...             .O&O       ",
"                          ............               X&OO       ",
"                             ..::..                 XX&OO       ",
"                                                    .X&X        ",
"                                                   XXO&&        ",
"          ..X                                     X.X&XX        ",
"        ..XXXXX                                  XXX&O&         ",
"       ..XXXXXXX                               XXXX&OO          ",
"      ..XXXXXXXX@                           XXXXXO+OXX          ",
"      .XXXX&XXXX@$%#o@**XXXXXXXXXXXXXXXXXXXXXXO&+&XXX           ",
"      .XXX=o@OXX#%%%#o@@+&OOOOOOO&&&&&&++++++++OXXX             ",
"      .XXXX@*XXX#%%%#o@@++&&&&&&&&&&&&&&OXOXXXXXX               ",
"      X.XXXOXXXX@###@@*&&XXXXXXXXXXXXX.XOOOOOO                  ",
"      ..XXXXXXX.@                                               ",
"       ..XXXXX..                                                ",
"        .......                                                 ",
"          ...                                                   ",
"                                                                ",
"                                                                ",
"                                                                "};
