/* XPM */
static char * mc_icon_2_xpm[] = {
"64 64 13 1",
" 	c #787870706B6B",
".	c #252524244A4A",
"X	c #292925256F6F",
"o	c #2A2A21218B8B",
"O	c #4B4B5151B1B1",
"+	c #515151518C8C",
"@	c #92929E9ED3D3",
"#	c #6F6F7676A0A0",
"$	c #71717F7FCACA",
"%	c #5A5A53535757",
"&	c #9F9F87876262",
"*	c #31311F1FB3B3",
"=	c #FFFFFFFFFFFF",
"                                                                ",
"                                                                ",
"                                                                ",
"                                                   .XX          ",
"                                                 ..XXXXX        ",
"                                                ..XXXXXXX       ",
"                                               ..XXXXXXXXX      ",
"                  ooooooXXXXXXXXXXXXXXXXXXXXXoO+.XXXO@#XXX      ",
"               XXXXoo+++++++OO++OOOOOOOO#####$$$..XX+$+XX.      ",
"             XXXooooXXXXXXXXXXXXXXXXXXXXXXXXXo++..XXXXXXXX      ",
"           oXXooXXXX...........................X...XXXXXX.      ",
"          oXooXX..XX                           .....XXXX..      ",
"          XooXX.X                               .........       ",
"         XXoX.X                                  .......        ",
"        oX+XXX                                     ...          ",
"        XooXX                                                   ",
"        X+o.                                                    ",
"       oX+XX                 +    O                             ",
"       XXOX                 +    +Oooo                          ",
"       XXOX               %%      Oooooo                        ",
"       XXOX             %         +oooooo                       ",
"       XX#X           %%          OooooooX                      ",
"       oX#X          %X%% &&&&&  ##+ooooooX                     ",
"        XOOo        %Xoo%&&&&&& #O#OOOooooo+                    ",
"        XX$X       ..XXo% &&&&&#*OOOO***ooooo                   ",
"         XO#o      ..XXXo+  && ###++O*O ##++o                   ",
"         XX$+#    ...XXooo+OO+   ###OO+    ++o                  ",
"          XX$+#   ...XXooooooo+****OOO+     %%                  ",
"           XX##+# ..XXXooooooo********+    %%%                  ",
"             XX#O...XXXXoooooo*==*****O    %%%X                 ",
"               XX...XXXXoooooo=**=****O%     %X                 ",
"                 ...XXXXooooo=o***=***++     %X                 ",
"                 ....XXXooooo=o***=*oooo+ && %X                 ",
"                 ....XXXoooooo=o*=*oooooo+ & %X+#               ",
"                 ....XXXooooooo==ooooooooX & XXX+O+             ",
"                  ...XXXXooooooooooooooo*o & X XXX#+#           ",
"                  ...XXXXooooooooooooooooo &++   XX#O#          ",
"                  ....XXXooooooooooooooooX  XX    XX$Oo         ",
"                   ....XXXooooooooooooooo% +X      XX$o         ",
"                   .....Xoooooooooooooooo++oX       .+#o        ",
"                    ....XXXXooooooooooooX+++        XX#X        ",
"                     .....XXXXXoooooooXXX%%          XOoo       ",
"                      .....XXXXXXXooXXXXXX           .+Oo       ",
"                       ........XXXXXXX.XX            .oOo       ",
"                        .........XXX..X.             .oOo       ",
"                          ............               Xooo       ",
"                             ......                 XX+oo       ",
"                                                    .XOX        ",
"                                                   XXo+X        ",
"          ..X                                     XXX+XX        ",
"        ..XXX.X                                  XXX+oX         ",
"       ..XXXXXXX                               XXXX+oX          ",
"      ..XXXXXXXXX                           XXXXXoOoXX          ",
"      .XXXXXXXXX+#+XXXXXXXXXXXXXXXXXXXXXXXXXXXo+O+XXX           ",
"      .XXX+@$XXX#O+oooooooooooooo+oo+++OOOOOOOOoXXX             ",
"      .XXXX$#XXX$#Ooooooooo++++++++++++ooXoXXXXXX               ",
"      X.XXXXXXXX++XXXXXXXXXXXXXXXXXXXX.Xoooooo                  ",
"      ..XXXXXXX..                                               ",
"       ..XXXXX..                                                ",
"        .......                                                 ",
"          ...                                                   ",
"                                                                ",
"                                                                ",
"                                                                "};
