/* XPM */
static char * mc_icon_3_xpm[] = {
"64 64 15 1",
" 	c #787870706B6B",
".	c #252524244A4A",
"X	c #292925256F6F",
"o	c #92929E9ED3D3",
"O	c #2A2A21218B8B",
"+	c #515151518C8C",
"@	c #4B4B5151B1B1",
"#	c #71717F7FCACA",
"$	c #A3A3B1B1D7D7",
"%	c #6F6F7676A0A0",
"&	c #CDCDE1E1F9F9",
"*	c #5A5A53535757",
"=	c #9F9F87876262",
"-	c #31311F1FB3B3",
";	c #FFFFFFFFFFFF",
"                                                                ",
"                                                                ",
"                                                                ",
"                                                   .XX          ",
"                                                 .XXXXXX        ",
"                                                ..XXXXXXX       ",
"                                               o.XXXXXXXXX      ",
"                  OOOOOOXXXXXXXXXXXXXXXXXO+@##$o.XXX@o@XXX      ",
"               XXXXOO+O+++++@@++@@@@@@@@@%##o$&&.XXX+#+XX.      ",
"             XXXOOOOXXXXXXXXXXXXXXXXXXXXXX++##oo..XXXXXXXX      ",
"           OXXOXXXXX.........................ooo...XXXXXX.      ",
"          OXOOXX..XX                           o....XXXX..      ",
"          XOXXX.X                               .........       ",
"         XXOX.X                                  .......        ",
"        OX+XXX                                     ...          ",
"        XOOXX                                                   ",
"        X+OX                                                    ",
"       OX+XX                                                    ",
"       XX@X                 *   ** ++O                          ",
"       XX@X              **         +OXO                        ",
"       XX@X             **          +OOXO                       ",
"       XX@X           **+**  =====  %+OOOX                      ",
"       OX#X          *XXOO+ ======%@@@@OOO+                     ",
"        X+@O        *XXXOOO+ =====%+@@+-OOO+                    ",
"        XX#X       ...XXXOOOO@@     % %@-*++O                   ",
"         X@@O      ..XXXXOOOOO--O++++++@+***+                   ",
"         XX#+%    ...XXXOOOOOO----------+****                   ",
"          XX#+%   ...XXXOOOOOO-----------* **                   ",
"           XX%%+% ...XXXXOOOOO-;;;-------+****                  ",
"             XX@@...XXXXXOOOOO;---;------+* **                  ",
"               XX...XXXXXOOOO;-----;----O-****                  ",
"                 ...XXXXXOOOO;-----;----OOO+                    ",
"                 ....XXXXOOOO;O----;---OOOOO*                   ",
"                 ....XXXXOOOOO;---;----OOOO+* X+%               ",
"                 ....XXXOOOOOOO;;;----OOOOOO* XO+++             ",
"                  ...XXXXOOOOOOOO----OOOOOOO** XXX%+%           ",
"                  ....XXXXOOOOOOOO---OOOOOOO*    XX%@%          ",
"                  ....XXXXXOOOOOOOO----OOOO*      XX#@O         ",
"                   ....XXXOOOOOOOOOO--OOOOX*+      XX#O         ",
"                   .....XXXOOOOOOOOOOOOOOOX*        .+%O        ",
"                    .....XXXXOOOOOOOOOOOXX+         XX#X        ",
"                     .....XXXXXXXXXOOOOXXX*          X@OO       ",
"                      .......XXXXXXXXOXXXX           .O+O       ",
"                       ..........XXXXX..X            .X+O       ",
"                        ..........XX..X.             .X+O       ",
"                          ............               XO+O       ",
"                             ......                 XX+OO       ",
"                                                    .X+X        ",
"                                                   XXX+X        ",
"          ..X                                     XXX+XX        ",
"        .XXXX.X                                  XXX+OX         ",
"       ..XXXXXXX                               XXXX+OX          ",
"      ..XXXXXXXX#                           XXXXX+@OXX          ",
"      .XXXXXOXXX#o#%%XXXXXXXXXXXXXXXXXXXXXXXXXO+@+X+X           ",
"      .XXX+o#XXX$$o#%@OOOOOOOOOO+++OO+++@@@@@@@OXXX             ",
"      .XXX+#%XXX$$o##@O++OOO++++++++++++OXXXXXXXX               ",
"      XXXXXXXXXX###%+XXXXXXXXXXXXXXXXX.XOOOOOO                  ",
"      ..XXXXXXX.#                                               ",
"       ..XXXXXX.                                                ",
"        .......                                                 ",
"          ...                                                   ",
"                                                                ",
"                                                                ",
"                                                                "};
